# xmcd
#
# Track frame offsets: 
#        150
#        42991
#        59738
#        79637
#        113862
#        148970
#        166028
#        184936
#        209478
#        225465
#        239780
#        273627
#        307930
#
# Disc length: 4360 seconds
#
# Revision: 0
# Processed by: cddbd v1.5.2PL0 Copyright (c) Steve Scherf et al.
# Submitted via: ExactAudioCopyFreeDBPlugin 1.0
#
DISCID=c011060d
DTITLE=Ten Years After -  I'm Going Home
DYEAR=1996
DGENRE=Rock
TTITLE0=I'm Going Home
TTITLE1=I'd Love To Change The World
TTITLE2=It's Getting Harder
TTITLE3=Love Like A Man
TTITLE4=Woodchoppers Ball
TTITLE5=Rock And Roll Music To The World
TTITLE6=Me And My Baby
TTITLE7=I Woke Up This Morning
TTITLE8=Stoned Woman
TTITLE9=Choo Choo Mama
TTITLE10=Slow Blues In "C"
TTITLE11=50,000 Miles Beneath My Brain
TTITLE12=Positive Vibrations
EXTD=
EXTT0=
EXTT1=
EXTT2=
EXTT3=
EXTT4=
EXTT5=
EXTT6=
EXTT7=
EXTT8=
EXTT9=
EXTT10=
EXTT11=
EXTT12=
PLAYORDER=
